<svg xmlns="http://www.w3.org/2000/svg" viewBox="0 0 96 96" role="img" aria-labelledby="title">
  <title id="title">MNL Odoo Sync catalog</title>
  <defs>
    <linearGradient id="panel" x1="18" y1="16" x2="78" y2="80" gradientUnits="userSpaceOnUse">
      <stop stop-color="#66ffd4"/>
      <stop offset="0.52" stop-color="#7cc7ff"/>
      <stop offset="1" stop-color="#f5a7ff"/>
    </linearGradient>
    <filter id="glow" x="-30%" y="-30%" width="160%" height="160%">
      <feGaussianBlur stdDeviation="3" result="blur"/>
      <feMerge>
        <feMergeNode in="blur"/>
        <feMergeNode in="SourceGraphic"/>
      </feMerge>
    </filter>
  </defs>
  <rect width="96" height="96" rx="24" fill="#07110f"/>
  <path d="M20 33 48 18l28 15-28 15-28-15Z" fill="url(#panel)" opacity=".95" filter="url(#glow)"/>
  <path d="M20 48 48 33l28 15-28 15-28-15Z" fill="none" stroke="#66ffd4" stroke-width="4" opacity=".78"/>
  <path d="M20 63 48 48l28 15-28 15-28-15Z" fill="none" stroke="#f5a7ff" stroke-width="4" opacity=".7"/>
  <path d="M34 31h28M34 46h28M34 61h28" stroke="#07110f" stroke-width="3" stroke-linecap="round" opacity=".72"/>
  <circle cx="72" cy="24" r="6" fill="#fff7b0"/>
  <path d="m72 12 1.8 7.2L81 21l-7.2 1.8L72 30l-1.8-7.2L63 21l7.2-1.8L72 12Z" fill="#fff7b0" opacity=".8"/>
</svg>
